<svg xmlns="http://www.w3.org/2000/svg" width="646.170654296875" height="648.8734741210938" viewBox="-229.93186950683594 -234.7517547607422 646.170654296875 648.8734741210938"><title>Neo4j Graph Visualization</title><desc>Created using Neo4j (http://www.neo4j.com/)</desc><g class="layer relationships"><g class="relationship" transform="translate(152.46665990049 222.3090139489725) rotate(240.73693836927413)"><path class="outline" fill="#A5ABB6" stroke="none" d="M 25 0.5 L 63.44069284166798 0.5 L 63.44069284166798 -0.5 L 25 -0.5 Z M 97.88600534166798 0.5 L 136.32669818333596 0.5 L 136.32669818333596 3.5 L 143.32669818333596 0 L 136.32669818333596 -3.5 L 136.32669818333596 -0.5 L 97.88600534166798 -0.5 Z"/><text text-anchor="middle" pointer-events="none" font-size="8px" fill="#000000" x="80.66334909166798" y="3" transform="rotate(180 80.66334909166798 0)" font-family="sans-serif">ORIGIN</text></g><g class="relationship" transform="translate(152.46665990049 222.3090139489725) rotate(379.1464291794548)"><path class="outline" fill="#A5ABB6" stroke="none" d="M 25 0.5 L 38.50466958218658 0.5 L 38.50466958218658 -0.5 L 25 -0.5 Z M 97.69216958218658 0.5 L 111.19683916437316 0.5 L 111.19683916437316 3.5 L 118.19683916437316 0 L 111.19683916437316 -3.5 L 111.19683916437316 -0.5 L 97.69216958218658 -0.5 Z"/><text text-anchor="middle" pointer-events="none" font-size="8px" fill="#000000" x="68.09841958218658" y="3" font-family="sans-serif">DESTINATION</text></g><g class="relationship" transform="translate(170.88396983232704 157.76701578972302) rotate(219.2599820198676)"><path class="outline" fill="#A5ABB6" stroke="none" d="M 25 0.5 L 44.30451477737434 0.5 L 44.30451477737434 -0.5 L 25 -0.5 Z M 78.74982727737434 0.5 L 98.05434205474867 0.5 L 98.05434205474867 3.5 L 105.05434205474867 0 L 98.05434205474867 -3.5 L 98.05434205474867 -0.5 L 78.74982727737434 -0.5 Z"/><text text-anchor="middle" pointer-events="none" font-size="8px" fill="#000000" x="61.52717102737434" y="3" transform="rotate(180 61.52717102737434 0)" font-family="sans-serif">ORIGIN</text></g><g class="relationship" transform="translate(170.88396983232704 157.76701578972302) rotate(403.6579202171896)"><path class="outline" fill="#A5ABB6" stroke="none" d="M 25 0.5 L 47.66818177553736 0.5 L 47.66818177553736 -0.5 L 25 -0.5 Z M 106.85568177553736 0.5 L 129.52386355107473 0.5 L 129.52386355107473 3.5 L 136.52386355107473 0 L 129.52386355107473 -3.5 L 129.52386355107473 -0.5 L 106.85568177553736 -0.5 Z"/><text text-anchor="middle" pointer-events="none" font-size="8px" fill="#000000" x="77.26193177553736" y="3" font-family="sans-serif">DESTINATION</text></g><g class="relationship" transform="translate(-51.16168012332255 115.25902529901316) rotate(341.8431274636623)"><path class="outline" fill="#A5ABB6" stroke="none" d="M 25 0.5 L 43.13020767788221 0.5 L 43.13020767788221 -0.5 L 25 -0.5 Z M 77.57552017788221 0.5 L 95.70572785576442 0.5 L 95.70572785576442 3.5 L 102.70572785576442 0 L 95.70572785576442 -3.5 L 95.70572785576442 -0.5 L 77.57552017788221 -0.5 Z"/><text text-anchor="middle" pointer-events="none" font-size="8px" fill="#000000" x="60.35286392788221" y="3" font-family="sans-serif">ORIGIN</text></g><g class="relationship" transform="translate(-51.16168012332255 115.25902529901316) rotate(190.4623028210915)"><path class="outline" fill="#A5ABB6" stroke="none" d="M 25 0.5 L 43.05738450008957 0.5 L 43.05738450008957 -0.5 L 25 -0.5 Z M 102.24488450008957 0.5 L 120.30226900017914 0.5 L 120.30226900017914 3.5 L 127.30226900017914 0 L 120.30226900017914 -3.5 L 120.30226900017914 -0.5 L 102.24488450008957 -0.5 Z"/><text text-anchor="middle" pointer-events="none" font-size="8px" fill="#000000" x="72.65113450008957" y="3" transform="rotate(180 72.65113450008957 0)" font-family="sans-serif">DESTINATION</text></g><g class="relationship" transform="translate(229.88628278080776 147.11867850409675) rotate(204.16499692451032)"><path class="outline" fill="#A5ABB6" stroke="none" d="M 25 0.5 L 66.79722914311733 0.5 L 66.79722914311733 -0.5 L 25 -0.5 Z M 101.24254164311733 0.5 L 143.03977078623467 0.5 L 143.03977078623467 3.5 L 150.03977078623467 0 L 143.03977078623467 -3.5 L 143.03977078623467 -0.5 L 101.24254164311733 -0.5 Z"/><text text-anchor="middle" pointer-events="none" font-size="8px" fill="#000000" x="84.01988539311733" y="3" transform="rotate(180 84.01988539311733 0)" font-family="sans-serif">ORIGIN</text></g><g class="relationship" transform="translate(229.88628278080776 147.11867850409675) rotate(424.6567216111178)"><path class="outline" fill="#A5ABB6" stroke="none" d="M 25 0.5 L 34.4886881688322 0.5 L 34.4886881688322 -0.5 L 25 -0.5 Z M 93.6761881688322 0.5 L 103.1648763376644 0.5 L 103.1648763376644 3.5 L 110.1648763376644 0 L 103.1648763376644 -3.5 L 103.1648763376644 -0.5 L 93.6761881688322 -0.5 Z"/><text text-anchor="middle" pointer-events="none" font-size="8px" fill="#000000" x="64.0824381688322" y="3" font-family="sans-serif">DESTINATION</text></g><g class="relationship" transform="translate(222.80049008794816 9.398778604183569) rotate(516.5930198175151)"><path class="outline" fill="#A5ABB6" stroke="none" d="M 25 0.5 L 62.42775879541347 0.5 L 62.42775879541347 -0.5 L 25 -0.5 Z M 96.87307129541347 0.5 L 134.30083009082693 0.5 L 134.30083009082693 3.5 L 141.30083009082693 0 L 134.30083009082693 -3.5 L 134.30083009082693 -0.5 L 96.87307129541347 -0.5 Z"/><text text-anchor="middle" pointer-events="none" font-size="8px" fill="#000000" x="79.65041504541347" y="3" transform="rotate(180 79.65041504541347 0)" font-family="sans-serif">ORIGIN</text></g><g class="relationship" transform="translate(222.80049008794816 9.398778604183569) rotate(312.6751433045863)"><path class="outline" fill="#A5ABB6" stroke="none" d="M 25 0.5 L 36.52715483658949 0.5 L 36.52715483658949 -0.5 L 25 -0.5 Z M 95.71465483658949 0.5 L 107.24180967317898 0.5 L 107.24180967317898 3.5 L 114.24180967317898 0 L 107.24180967317898 -3.5 L 107.24180967317898 -0.5 L 95.71465483658949 -0.5 Z"/><text text-anchor="middle" pointer-events="none" font-size="8px" fill="#000000" x="66.12090483658949" y="3" font-family="sans-serif">DESTINATION</text></g><g class="relationship" transform="translate(-56.9178849743367 46.47446547196178) rotate(372.84792405833406)"><path class="outline" fill="#A5ABB6" stroke="none" d="M 25 0.5 L 44.46083004591168 0.5 L 44.46083004591168 -0.5 L 25 -0.5 Z M 78.90614254591168 0.5 L 98.36697259182336 0.5 L 98.36697259182336 3.5 L 105.36697259182336 0 L 98.36697259182336 -3.5 L 98.36697259182336 -0.5 L 78.90614254591168 -0.5 Z"/><text text-anchor="middle" pointer-events="none" font-size="8px" fill="#000000" x="61.68348629591168" y="3" font-family="sans-serif">ORIGIN</text></g><g class="relationship" transform="translate(-56.9178849743367 46.47446547196178) rotate(524.0614609276349)"><path class="outline" fill="#A5ABB6" stroke="none" d="M 25 0.5 L 41.79208853942053 0.5 L 41.79208853942053 -0.5 L 25 -0.5 Z M 100.97958853942053 0.5 L 117.77167707884107 0.5 L 117.77167707884107 3.5 L 124.77167707884107 0 L 117.77167707884107 -3.5 L 117.77167707884107 -0.5 L 100.97958853942053 -0.5 Z"/><text text-anchor="middle" pointer-events="none" font-size="8px" fill="#000000" x="71.38583853942053" y="3" transform="rotate(180 71.38583853942053 0)" font-family="sans-serif">DESTINATION</text></g><g class="relationship" transform="translate(131.54681327814134 -76.2170456582277) rotate(472.02556986011956)"><path class="outline" fill="#A5ABB6" stroke="none" d="M 25 0.5 L 61.08841597342814 0.5 L 61.08841597342814 -0.5 L 25 -0.5 Z M 95.53372847342814 0.5 L 131.62214444685628 0.5 L 131.62214444685628 3.5 L 138.62214444685628 0 L 131.62214444685628 -3.5 L 131.62214444685628 -0.5 L 95.53372847342814 -0.5 Z"/><text text-anchor="middle" pointer-events="none" font-size="8px" fill="#000000" x="78.31107222342814" y="3" transform="rotate(180 78.31107222342814 0)" font-family="sans-serif">ORIGIN</text></g><g class="relationship" transform="translate(131.54681327814134 -76.2170456582277) rotate(245.97806342818922)"><path class="outline" fill="#A5ABB6" stroke="none" d="M 25 0.5 L 37.81503717722427 0.5 L 37.81503717722427 -0.5 L 25 -0.5 Z M 97.00253717722427 0.5 L 109.81757435444854 0.5 L 109.81757435444854 3.5 L 116.81757435444854 0 L 109.81757435444854 -3.5 L 109.81757435444854 -0.5 L 97.00253717722427 -0.5 Z"/><text text-anchor="middle" pointer-events="none" font-size="8px" fill="#000000" x="67.40878717722427" y="3" transform="rotate(180 67.40878717722427 0)" font-family="sans-serif">DESTINATION</text></g><g class="relationship" transform="translate(189.39114190869483 -40.247030540909684) rotate(495.8524930458148)"><path class="outline" fill="#A5ABB6" stroke="none" d="M 25 0.5 L 62.34202301549064 0.5 L 62.34202301549064 -0.5 L 25 -0.5 Z M 96.78733551549064 0.5 L 134.12935853098128 0.5 L 134.12935853098128 3.5 L 141.12935853098128 0 L 134.12935853098128 -3.5 L 134.12935853098128 -0.5 L 96.78733551549064 -0.5 Z"/><text text-anchor="middle" pointer-events="none" font-size="8px" fill="#000000" x="79.56467926549064" y="3" transform="rotate(180 79.56467926549064 0)" font-family="sans-serif">ORIGIN</text></g><g class="relationship" transform="translate(189.39114190869483 -40.247030540909684) rotate(337.5795148482665)"><path class="outline" fill="#A5ABB6" stroke="none" d="M 25 0.5 L 36.027723214619044 0.5 L 36.027723214619044 -0.5 L 25 -0.5 Z M 95.21522321461904 0.5 L 106.24294642923809 0.5 L 106.24294642923809 3.5 L 113.24294642923809 0 L 106.24294642923809 -3.5 L 106.24294642923809 -0.5 L 95.21522321461904 -0.5 Z"/><text text-anchor="middle" pointer-events="none" font-size="8px" fill="#000000" x="65.62147321461904" y="3" font-family="sans-serif">DESTINATION</text></g><g class="relationship" transform="translate(55.999287848914804 -51.238395128240455) rotate(443.61160690584364)"><path class="outline" fill="#A5ABB6" stroke="none" d="M 25 0.5 L 43.02407575445855 0.5 L 43.02407575445855 -0.5 L 25 -0.5 Z M 77.46938825445855 0.5 L 95.4934640089171 0.5 L 95.4934640089171 3.5 L 102.4934640089171 0 L 95.4934640089171 -3.5 L 95.4934640089171 -0.5 L 77.46938825445855 -0.5 Z"/><text text-anchor="middle" pointer-events="none" font-size="8px" fill="#000000" x="60.24673200445855" y="3" font-family="sans-serif">ORIGIN</text></g><g class="relationship" transform="translate(55.999287848914804 -51.238395128240455) rotate(276.5772087353365)"><path class="outline" fill="#A5ABB6" stroke="none" d="M 25 0.5 L 44.674769393934625 0.5 L 44.674769393934625 -0.5 L 25 -0.5 Z M 103.86226939393462 0.5 L 123.53703878786925 0.5 L 123.53703878786925 3.5 L 130.53703878786925 0 L 123.53703878786925 -3.5 L 123.53703878786925 -0.5 L 103.86226939393462 -0.5 Z"/><text text-anchor="middle" pointer-events="none" font-size="8px" fill="#000000" x="74.26851939393462" y="3" font-family="sans-serif">DESTINATION</text></g><g class="relationship" transform="translate(11.963803675131276 -91.79935997398316) rotate(430.80784457935266)"><path class="outline" fill="#A5ABB6" stroke="none" d="M 25 0.5 L 67.8303762259398 0.5 L 67.8303762259398 -0.5 L 25 -0.5 Z M 102.2756887259398 0.5 L 145.1060649518796 0.5 L 145.1060649518796 3.5 L 152.1060649518796 0 L 145.1060649518796 -3.5 L 145.1060649518796 -0.5 L 102.2756887259398 -0.5 Z"/><text text-anchor="middle" pointer-events="none" font-size="8px" fill="#000000" x="85.0530324759398" y="3" font-family="sans-serif">ORIGIN</text></g><g class="relationship" transform="translate(11.963803675131276 -91.79935997398316) rotate(298.49219637445896)"><path class="outline" fill="#A5ABB6" stroke="none" d="M 25 0.5 L 31.73428174643601 0.5 L 31.73428174643601 -0.5 L 25 -0.5 Z M 90.92178174643601 0.5 L 97.65606349287202 0.5 L 97.65606349287202 3.5 L 104.65606349287202 0 L 97.65606349287202 -3.5 L 97.65606349287202 -0.5 L 90.92178174643601 -0.5 Z"/><text text-anchor="middle" pointer-events="none" font-size="8px" fill="#000000" x="61.32803174643601" y="3" font-family="sans-serif">DESTINATION</text></g><g class="relationship" transform="translate(-102.57459006688279 84.96899529964199) rotate(356.85064339707696)"><path class="outline" fill="#A5ABB6" stroke="none" d="M 25 0.5 L 65.78788507914575 0.5 L 65.78788507914575 -0.5 L 25 -0.5 Z M 100.23319757914575 0.5 L 141.0210826582915 0.5 L 141.0210826582915 3.5 L 148.0210826582915 0 L 141.0210826582915 -3.5 L 141.0210826582915 -0.5 L 100.23319757914575 -0.5 Z"/><text text-anchor="middle" pointer-events="none" font-size="8px" fill="#000000" x="83.01054132914575" y="3" font-family="sans-serif">ORIGIN</text></g><g class="relationship" transform="translate(-102.57459006688279 84.96899529964199) rotate(538.466176595464)"><path class="outline" fill="#A5ABB6" stroke="none" d="M 25 0.5 L 26.91696631399875 0.5 L 26.91696631399875 -0.5 L 25 -0.5 Z M 64.47556006399876 0.5 L 66.3925263779975 0.5 L 66.3925263779975 3.5 L 73.3925263779975 0 L 66.3925263779975 -3.5 L 66.3925263779975 -0.5 L 64.47556006399876 -0.5 Z"/><text text-anchor="middle" pointer-events="none" font-size="8px" fill="#000000" x="45.69626318899875" y="3" transform="rotate(180 45.69626318899875 0)" font-family="sans-serif">DESTI…</text></g><g class="relationship" transform="translate(-67.7143538799753 -12.447561057352365) rotate(392.5175115057481)"><path class="outline" fill="#A5ABB6" stroke="none" d="M 25 0.5 L 61.046253074717455 0.5 L 61.046253074717455 -0.5 L 25 -0.5 Z M 95.49156557471746 0.5 L 131.5378186494349 0.5 L 131.5378186494349 3.5 L 138.5378186494349 0 L 131.5378186494349 -3.5 L 131.5378186494349 -0.5 L 95.49156557471746 -0.5 Z"/><text text-anchor="middle" pointer-events="none" font-size="8px" fill="#000000" x="78.26890932471746" y="3" font-family="sans-serif">ORIGIN</text></g><g class="relationship" transform="translate(-67.7143538799753 -12.447561057352365) rotate(503.09238165907226)"><path class="outline" fill="#A5ABB6" stroke="none" d="M 25 0.5 L 50.20834220818472 0.5 L 50.20834220818472 -0.5 L 25 -0.5 Z M 109.39584220818472 0.5 L 134.60418441636943 0.5 L 134.60418441636943 3.5 L 141.60418441636943 0 L 134.60418441636943 -3.5 L 134.60418441636943 -0.5 L 109.39584220818472 -0.5 Z"/><text text-anchor="middle" pointer-events="none" font-size="8px" fill="#000000" x="79.80209220818472" y="3" transform="rotate(180 79.80209220818472 0)" font-family="sans-serif">DESTINATION</text></g><g class="relationship" transform="translate(-57.39254256801863 174.8815866592552) rotate(322.07158794987043)"><path class="outline" fill="#A5ABB6" stroke="none" d="M 25 0.5 L 60.14769112818195 0.5 L 60.14769112818195 -0.5 L 25 -0.5 Z M 94.59300362818195 0.5 L 129.7406947563639 0.5 L 129.7406947563639 3.5 L 136.7406947563639 0 L 129.7406947563639 -3.5 L 129.7406947563639 -0.5 L 94.59300362818195 -0.5 Z"/><text text-anchor="middle" pointer-events="none" font-size="8px" fill="#000000" x="77.37034737818195" y="3" font-family="sans-serif">ORIGIN</text></g><g class="relationship" transform="translate(-57.39254256801863 174.8815866592552) rotate(211.3016428540937)"><path class="outline" fill="#A5ABB6" stroke="none" d="M 25 0.5 L 50.90200091273407 0.5 L 50.90200091273407 -0.5 L 25 -0.5 Z M 110.08950091273407 0.5 L 135.99150182546813 0.5 L 135.99150182546813 3.5 L 142.99150182546813 0 L 135.99150182546813 -3.5 L 135.99150182546813 -0.5 L 110.08950091273407 -0.5 Z"/><text text-anchor="middle" pointer-events="none" font-size="8px" fill="#000000" x="80.49575091273407" y="3" transform="rotate(180 80.49575091273407 0)" font-family="sans-serif">DESTINATION</text></g><g class="relationship" transform="translate(15.181390590248478 228.42506280219496) rotate(289.7781786648824)"><path class="outline" fill="#A5ABB6" stroke="none" d="M 25 0.5 L 60.552629985793075 0.5 L 60.552629985793075 -0.5 L 25 -0.5 Z M 94.99794248579308 0.5 L 130.55057247158615 0.5 L 130.55057247158615 3.5 L 137.55057247158615 0 L 130.55057247158615 -3.5 L 130.55057247158615 -0.5 L 94.99794248579308 -0.5 Z"/><text text-anchor="middle" pointer-events="none" font-size="8px" fill="#000000" x="77.77528623579308" y="3" font-family="sans-serif">ORIGIN</text></g><g class="relationship" transform="translate(15.181390590248478 228.42506280219496) rotate(472.345883803935)"><path class="outline" fill="#A5ABB6" stroke="none" d="M 25 0.5 L 43.14945777203417 0.5 L 43.14945777203417 -0.5 L 25 -0.5 Z M 102.33695777203417 0.5 L 120.48641554406834 0.5 L 120.48641554406834 3.5 L 127.48641554406834 0 L 120.48641554406834 -3.5 L 120.48641554406834 -0.5 L 102.33695777203417 -0.5 Z"/><text text-anchor="middle" pointer-events="none" font-size="8px" fill="#000000" x="72.74320777203417" y="3" transform="rotate(180 72.74320777203417 0)" font-family="sans-serif">DESTINATION</text></g><g class="relationship" transform="translate(-113.2407450441764 25.903070749163795) rotate(375.11985910213514)"><path class="outline" fill="#A5ABB6" stroke="none" d="M 25 0.5 L 74.27904936535533 0.5 L 74.27904936535533 -0.5 L 25 -0.5 Z M 108.72436186535533 0.5 L 158.00341123071067 0.5 L 158.00341123071067 3.5 L 165.00341123071067 0 L 158.00341123071067 -3.5 L 158.00341123071067 -0.5 L 108.72436186535533 -0.5 Z"/><text text-anchor="middle" pointer-events="none" font-size="8px" fill="#000000" x="91.50170561535533" y="3" font-family="sans-serif">ORIGIN</text></g><g class="relationship" transform="translate(-113.2407450441764 25.903070749163795) rotate(504.86972235723744)"><path class="outline" fill="#A5ABB6" stroke="none" d="M 25 0.5 L 25.775099602481028 0.5 L 25.775099602481028 -0.5 L 25 -0.5 Z M 74.44697460248102 0.5 L 75.22207420496206 0.5 L 75.22207420496206 3.5 L 82.22207420496206 0 L 75.22207420496206 -3.5 L 75.22207420496206 -0.5 L 74.44697460248102 -0.5 Z"/><text text-anchor="middle" pointer-events="none" font-size="8px" fill="#000000" x="50.11103710248103" y="3" transform="rotate(180 50.11103710248103 0)" font-family="sans-serif">DESTINA…</text></g><g class="relationship" transform="translate(209.2490653524029 203.37413513535387) rotate(222.60779980319688)"><path class="outline" fill="#A5ABB6" stroke="none" d="M 25 0.5 L 73.74945749982383 0.5 L 73.74945749982383 -0.5 L 25 -0.5 Z M 108.19476999982383 0.5 L 156.94422749964767 0.5 L 156.94422749964767 3.5 L 163.94422749964767 0 L 156.94422749964767 -3.5 L 156.94422749964767 -0.5 L 108.19476999982383 -0.5 Z"/><text text-anchor="middle" pointer-events="none" font-size="8px" fill="#000000" x="90.97211374982383" y="3" transform="rotate(180 90.97211374982383 0)" font-family="sans-serif">ORIGIN</text></g><g class="relationship" transform="translate(209.2490653524029 203.37413513535387) rotate(400.01601749422446)"><path class="outline" fill="#A5ABB6" stroke="none" d="M 25 0.5 L 26.076902538607712 0.5 L 26.076902538607712 -0.5 L 25 -0.5 Z M 69.41284003860771 0.5 L 70.48974257721542 0.5 L 70.48974257721542 3.5 L 77.48974257721542 0 L 70.48974257721542 -3.5 L 70.48974257721542 -0.5 L 69.41284003860771 -0.5 Z"/><text text-anchor="middle" pointer-events="none" font-size="8px" fill="#000000" x="47.74487128860771" y="3" font-family="sans-serif">DESTIN…</text></g><g class="relationship" transform="translate(-108.65165342337157 144.4804222385959) rotate(338.8973131749308)"><path class="outline" fill="#A5ABB6" stroke="none" d="M 25 0.5 L 75.12352707054276 0.5 L 75.12352707054276 -0.5 L 25 -0.5 Z M 109.56883957054276 0.5 L 159.69236664108553 0.5 L 159.69236664108553 3.5 L 166.69236664108553 0 L 159.69236664108553 -3.5 L 159.69236664108553 -0.5 L 109.56883957054276 -0.5 Z"/><text text-anchor="middle" pointer-events="none" font-size="8px" fill="#000000" x="92.34618332054276" y="3" font-family="sans-serif">ORIGIN</text></g><g class="relationship" transform="translate(-108.65165342337157 144.4804222385959) rotate(211.6479824927177)"><path class="outline" fill="#A5ABB6" stroke="none" d="M 25 0.5 L 26.364420093137653 0.5 L 26.364420093137653 -0.5 L 25 -0.5 Z M 75.03629509313765 0.5 L 76.4007151862753 0.5 L 76.4007151862753 3.5 L 83.4007151862753 0 L 76.4007151862753 -3.5 L 76.4007151862753 -0.5 L 75.03629509313765 -0.5 Z"/><text text-anchor="middle" pointer-events="none" font-size="8px" fill="#000000" x="50.70035759313765" y="3" transform="rotate(180 50.70035759313765 0)" font-family="sans-serif">DESTINA…</text></g><g class="relationship" transform="translate(79.67317831363448 -105.92069368650455) rotate(452.9943484761989)"><path class="outline" fill="#A5ABB6" stroke="none" d="M 25 0.5 L 70.09338026997654 0.5 L 70.09338026997654 -0.5 L 25 -0.5 Z M 104.53869276997654 0.5 L 149.63207303995307 0.5 L 149.63207303995307 3.5 L 156.63207303995307 0 L 149.63207303995307 -3.5 L 149.63207303995307 -0.5 L 104.53869276997654 -0.5 Z"/><text text-anchor="middle" pointer-events="none" font-size="8px" fill="#000000" x="87.31603651997654" y="3" transform="rotate(180 87.31603651997654 0)" font-family="sans-serif">ORIGIN</text></g><g class="relationship" transform="translate(79.67317831363448 -105.92069368650455) rotate(266.6415738325352)"><path class="outline" fill="#A5ABB6" stroke="none" d="M 25 0.5 L 27.722105012354966 0.5 L 27.722105012354966 -0.5 L 25 -0.5 Z M 65.28069876235497 0.5 L 68.00280377470993 0.5 L 68.00280377470993 3.5 L 75.00280377470993 0 L 68.00280377470993 -3.5 L 68.00280377470993 -0.5 L 65.28069876235497 -0.5 Z"/><text text-anchor="middle" pointer-events="none" font-size="8px" fill="#000000" x="46.501401887354966" y="3" transform="rotate(180 46.501401887354966 0)" font-family="sans-serif">DESTI…</text></g><g class="relationship" transform="translate(81.8528074577496 234.02642373434344) rotate(265.7915593783841)"><path class="outline" fill="#A5ABB6" stroke="none" d="M 25 0.5 L 58.77320428540804 0.5 L 58.77320428540804 -0.5 L 25 -0.5 Z M 93.21851678540804 0.5 L 126.99172107081608 0.5 L 126.99172107081608 3.5 L 133.99172107081608 0 L 126.99172107081608 -3.5 L 126.99172107081608 -0.5 L 93.21851678540804 -0.5 Z"/><text text-anchor="middle" pointer-events="none" font-size="8px" fill="#000000" x="75.99586053540804" y="3" transform="rotate(180 75.99586053540804 0)" font-family="sans-serif">ORIGIN</text></g><g class="relationship" transform="translate(81.8528074577496 234.02642373434344) rotate(439.3384060348469)"><path class="outline" fill="#A5ABB6" stroke="none" d="M 25 0.5 L 43.78097582672872 0.5 L 43.78097582672872 -0.5 L 25 -0.5 Z M 102.96847582672872 0.5 L 121.74945165345744 0.5 L 121.74945165345744 3.5 L 128.74945165345744 0 L 121.74945165345744 -3.5 L 121.74945165345744 -0.5 L 102.96847582672872 -0.5 Z"/><text text-anchor="middle" pointer-events="none" font-size="8px" fill="#000000" x="73.37472582672872" y="3" font-family="sans-serif">DESTINATION</text></g><g class="relationship" transform="translate(232.20064711892618 71.10655560944369) rotate(538.4596013783868)"><path class="outline" fill="#A5ABB6" stroke="none" d="M 25 0.5 L 60.314361840110706 0.5 L 60.314361840110706 -0.5 L 25 -0.5 Z M 94.7596743401107 0.5 L 130.0740361802214 0.5 L 130.0740361802214 3.5 L 137.0740361802214 0 L 130.0740361802214 -3.5 L 130.0740361802214 -0.5 L 94.7596743401107 -0.5 Z"/><text text-anchor="middle" pointer-events="none" font-size="8px" fill="#000000" x="77.5370180901107" y="3" transform="rotate(180 77.5370180901107 0)" font-family="sans-serif">ORIGIN</text></g><g class="relationship" transform="translate(232.20064711892618 71.10655560944369) rotate(360.48577632589956)"><path class="outline" fill="#A5ABB6" stroke="none" d="M 25 0.5 L 44.428113211594436 0.5 L 44.428113211594436 -0.5 L 25 -0.5 Z M 103.61561321159444 0.5 L 123.04372642318887 0.5 L 123.04372642318887 3.5 L 130.04372642318887 0 L 123.04372642318887 -3.5 L 123.04372642318887 -0.5 L 103.61561321159444 -0.5 Z"/><text text-anchor="middle" pointer-events="none" font-size="8px" fill="#000000" x="74.02186321159444" y="3" font-family="sans-serif">DESTINATION</text></g></g><g class="layer nodes"><g class="node" transform="translate(70.1851813495578,75.4633956664498)"><circle class="outline" cx="0" cy="0" r="25" fill="#ECB5C9" stroke="#da7298" stroke-width="2px"/><text text-anchor="middle" pointer-events="none" font-family="sans-serif" dy="1.5625" font-size="25" fill="#2A2C34"/><text text-anchor="middle" pointer-events="none" x="0" y="5" font-size="10px" fill="#2A2C34" font-family="sans-serif"> LAX</text></g><g class="node" transform="translate(287.74234302218065,269.2752177835096)"><circle class="outline" cx="0" cy="0" r="25" fill="#ECB5C9" stroke="#da7298" stroke-width="2px"/><text text-anchor="middle" pointer-events="none" font-family="sans-serif" dy="1.5625" font-size="25" fill="#2A2C34"/><text text-anchor="middle" pointer-events="none" x="0" y="5" font-size="10px" fill="#2A2C34" font-family="sans-serif"> SMF</text></g><g class="node" transform="translate(-200.93186218223906,87.60267505821074)"><circle class="outline" cx="0" cy="0" r="25" fill="#ECB5C9" stroke="#da7298" stroke-width="2px"/><text text-anchor="middle" pointer-events="none" font-family="sans-serif" dy="1.5625" font-size="25" fill="#2A2C34"/><text text-anchor="middle" pointer-events="none" x="0" y="5" font-size="10px" fill="#2A2C34" font-family="sans-serif"> ABQ</text></g><g class="node" transform="translate(317.18426657511276,-92.97301583687698)"><circle class="outline" cx="0" cy="0" r="25" fill="#ECB5C9" stroke="#da7298" stroke-width="2px"/><text text-anchor="middle" pointer-events="none" font-family="sans-serif" dy="1.5625" font-size="25" fill="#2A2C34"/><text text-anchor="middle" pointer-events="none" x="0" y="5" font-size="10px" fill="#2A2C34" font-family="sans-serif"> TUS</text></g><g class="node" transform="translate(73.81481056799143,-205.7517524315662)"><circle class="outline" cx="0" cy="0" r="25" fill="#ECB5C9" stroke="#da7298" stroke-width="2px"/><text text-anchor="middle" pointer-events="none" font-family="sans-serif" dy="1.5625" font-size="25" fill="#2A2C34"/><text text-anchor="middle" pointer-events="none" x="0" y="5" font-size="10px" fill="#2A2C34" font-family="sans-serif"> FAT</text></g><g class="node" transform="translate(-42.79348217147577,369.4605939769318)"><circle class="outline" cx="0" cy="0" r="25" fill="#ECB5C9" stroke="#da7298" stroke-width="2px"/><text text-anchor="middle" pointer-events="none" font-family="sans-serif" dy="1.5625" font-size="25" fill="#2A2C34"/><text text-anchor="middle" pointer-events="none" x="0" y="5" font-size="10px" fill="#2A2C34" font-family="sans-serif"> LAS</text></g><g class="node" transform="translate(110.297673218757,385.1217032621206)"><circle class="outline" cx="0" cy="0" r="25" fill="#ECB5C9" stroke="#da7298" stroke-width="2px"/><text text-anchor="middle" pointer-events="none" font-family="sans-serif" dy="1.5625" font-size="25" fill="#2A2C34"/><text text-anchor="middle" pointer-events="none" x="0" y="5" font-size="10px" fill="#2A2C34" font-family="sans-serif"> EWR</text></g><g class="node" transform="translate(387.23880105558214,72.42106201962233)"><circle class="outline" cx="0" cy="0" r="25" fill="#ECB5C9" stroke="#da7298" stroke-width="2px"/><text text-anchor="middle" pointer-events="none" font-family="sans-serif" dy="1.5625" font-size="25" fill="#2A2C34"/><text text-anchor="middle" pointer-events="none" x="0" y="5" font-size="10px" fill="#2A2C34" font-family="sans-serif"> IAH</text></g><g class="node" transform="translate(152.46665990049,222.3090139489725)"><circle class="outline" cx="0" cy="0" r="25" fill="#4C8EDA" stroke="#2870c2" stroke-width="2px"/><text text-anchor="middle" pointer-events="none" font-family="sans-serif" dy="1.5625" font-size="25" fill="#FFFFFF"/><text text-anchor="middle" pointer-events="none" x="0" y="5" font-size="10px" fill="#FFFFFF" font-family="sans-serif"> 11/4/2015</text></g><g class="node" transform="translate(170.88396983232704,157.76701578972302)"><circle class="outline" cx="0" cy="0" r="25" fill="#4C8EDA" stroke="#2870c2" stroke-width="2px"/><text text-anchor="middle" pointer-events="none" font-family="sans-serif" dy="1.5625" font-size="25" fill="#FFFFFF"/><text text-anchor="middle" pointer-events="none" x="0" y="5" font-size="10px" fill="#FFFFFF" font-family="sans-serif"> 11/2/2015</text></g><g class="node" transform="translate(-51.16168012332255,115.25902529901316)"><circle class="outline" cx="0" cy="0" r="25" fill="#4C8EDA" stroke="#2870c2" stroke-width="2px"/><text text-anchor="middle" pointer-events="none" font-family="sans-serif" dy="1.5625" font-size="25" fill="#FFFFFF"/><text text-anchor="middle" pointer-events="none" x="0" y="5" font-size="10px" fill="#FFFFFF" font-family="sans-serif"> 11/3/2015</text></g><g class="node" transform="translate(229.88628278080776,147.11867850409675)"><circle class="outline" cx="0" cy="0" r="25" fill="#4C8EDA" stroke="#2870c2" stroke-width="2px"/><text text-anchor="middle" pointer-events="none" font-family="sans-serif" dy="1.5625" font-size="25" fill="#FFFFFF"/><text text-anchor="middle" pointer-events="none" x="0" y="5" font-size="10px" fill="#FFFFFF" font-family="sans-serif"> 11/3/2015</text></g><g class="node" transform="translate(222.80049008794816,9.398778604183569)"><circle class="outline" cx="0" cy="0" r="25" fill="#4C8EDA" stroke="#2870c2" stroke-width="2px"/><text text-anchor="middle" pointer-events="none" font-family="sans-serif" dy="1.5625" font-size="25" fill="#FFFFFF"/><text text-anchor="middle" pointer-events="none" x="0" y="5" font-size="10px" fill="#FFFFFF" font-family="sans-serif"> 11/2/2015</text></g><g class="node" transform="translate(-56.9178849743367,46.47446547196178)"><circle class="outline" cx="0" cy="0" r="25" fill="#4C8EDA" stroke="#2870c2" stroke-width="2px"/><text text-anchor="middle" pointer-events="none" font-family="sans-serif" dy="1.5625" font-size="25" fill="#FFFFFF"/><text text-anchor="middle" pointer-events="none" x="0" y="5" font-size="10px" fill="#FFFFFF" font-family="sans-serif"> 11/1/2015</text></g><g class="node" transform="translate(131.54681327814134,-76.2170456582277)"><circle class="outline" cx="0" cy="0" r="25" fill="#4C8EDA" stroke="#2870c2" stroke-width="2px"/><text text-anchor="middle" pointer-events="none" font-family="sans-serif" dy="1.5625" font-size="25" fill="#FFFFFF"/><text text-anchor="middle" pointer-events="none" x="0" y="5" font-size="10px" fill="#FFFFFF" font-family="sans-serif"> 11/1/2015</text></g><g class="node" transform="translate(189.39114190869483,-40.247030540909684)"><circle class="outline" cx="0" cy="0" r="25" fill="#4C8EDA" stroke="#2870c2" stroke-width="2px"/><text text-anchor="middle" pointer-events="none" font-family="sans-serif" dy="1.5625" font-size="25" fill="#FFFFFF"/><text text-anchor="middle" pointer-events="none" x="0" y="5" font-size="10px" fill="#FFFFFF" font-family="sans-serif"> 11/1/2015</text></g><g class="node" transform="translate(55.999287848914804,-51.238395128240455)"><circle class="outline" cx="0" cy="0" r="25" fill="#4C8EDA" stroke="#2870c2" stroke-width="2px"/><text text-anchor="middle" pointer-events="none" font-family="sans-serif" dy="1.5625" font-size="25" fill="#FFFFFF"/><text text-anchor="middle" pointer-events="none" x="0" y="5" font-size="10px" fill="#FFFFFF" font-family="sans-serif"> 11/2/2015</text></g><g class="node" transform="translate(11.963803675131276,-91.79935997398316)"><circle class="outline" cx="0" cy="0" r="25" fill="#4C8EDA" stroke="#2870c2" stroke-width="2px"/><text text-anchor="middle" pointer-events="none" font-family="sans-serif" dy="1.5625" font-size="25" fill="#FFFFFF"/><text text-anchor="middle" pointer-events="none" x="0" y="5" font-size="10px" fill="#FFFFFF" font-family="sans-serif"> 11/4/2015</text></g><g class="node" transform="translate(-102.57459006688279,84.96899529964199)"><circle class="outline" cx="0" cy="0" r="25" fill="#4C8EDA" stroke="#2870c2" stroke-width="2px"/><text text-anchor="middle" pointer-events="none" font-family="sans-serif" dy="1.5625" font-size="25" fill="#FFFFFF"/><text text-anchor="middle" pointer-events="none" x="0" y="5" font-size="10px" fill="#FFFFFF" font-family="sans-serif"> 11/4/2015</text></g><g class="node" transform="translate(-67.7143538799753,-12.447561057352365)"><circle class="outline" cx="0" cy="0" r="25" fill="#4C8EDA" stroke="#2870c2" stroke-width="2px"/><text text-anchor="middle" pointer-events="none" font-family="sans-serif" dy="1.5625" font-size="25" fill="#FFFFFF"/><text text-anchor="middle" pointer-events="none" x="0" y="5" font-size="10px" fill="#FFFFFF" font-family="sans-serif"> 11/2/2015</text></g><g class="node" transform="translate(-57.39254256801863,174.8815866592552)"><circle class="outline" cx="0" cy="0" r="25" fill="#4C8EDA" stroke="#2870c2" stroke-width="2px"/><text text-anchor="middle" pointer-events="none" font-family="sans-serif" dy="1.5625" font-size="25" fill="#FFFFFF"/><text text-anchor="middle" pointer-events="none" x="0" y="5" font-size="10px" fill="#FFFFFF" font-family="sans-serif"> 11/2/2015</text></g><g class="node" transform="translate(15.181390590248478,228.42506280219496)"><circle class="outline" cx="0" cy="0" r="25" fill="#4C8EDA" stroke="#2870c2" stroke-width="2px"/><text text-anchor="middle" pointer-events="none" font-family="sans-serif" dy="1.5625" font-size="25" fill="#FFFFFF"/><text text-anchor="middle" pointer-events="none" x="0" y="5" font-size="10px" fill="#FFFFFF" font-family="sans-serif"> 11/29/20…</text></g><g class="node" transform="translate(-113.2407450441764,25.903070749163795)"><circle class="outline" cx="0" cy="0" r="25" fill="#4C8EDA" stroke="#2870c2" stroke-width="2px"/><text text-anchor="middle" pointer-events="none" font-family="sans-serif" dy="1.5625" font-size="25" fill="#FFFFFF"/><text text-anchor="middle" pointer-events="none" x="0" y="5" font-size="10px" fill="#FFFFFF" font-family="sans-serif"> 11/1/2015</text></g><g class="node" transform="translate(209.2490653524029,203.37413513535387)"><circle class="outline" cx="0" cy="0" r="25" fill="#4C8EDA" stroke="#2870c2" stroke-width="2px"/><text text-anchor="middle" pointer-events="none" font-family="sans-serif" dy="1.5625" font-size="25" fill="#FFFFFF"/><text text-anchor="middle" pointer-events="none" x="0" y="5" font-size="10px" fill="#FFFFFF" font-family="sans-serif"> 11/1/2015</text></g><g class="node" transform="translate(-108.65165342337157,144.4804222385959)"><circle class="outline" cx="0" cy="0" r="25" fill="#4C8EDA" stroke="#2870c2" stroke-width="2px"/><text text-anchor="middle" pointer-events="none" font-family="sans-serif" dy="1.5625" font-size="25" fill="#FFFFFF"/><text text-anchor="middle" pointer-events="none" x="0" y="5" font-size="10px" fill="#FFFFFF" font-family="sans-serif"> 11/3/2015</text></g><g class="node" transform="translate(79.67317831363448,-105.92069368650455)"><circle class="outline" cx="0" cy="0" r="25" fill="#4C8EDA" stroke="#2870c2" stroke-width="2px"/><text text-anchor="middle" pointer-events="none" font-family="sans-serif" dy="1.5625" font-size="25" fill="#FFFFFF"/><text text-anchor="middle" pointer-events="none" x="0" y="5" font-size="10px" fill="#FFFFFF" font-family="sans-serif"> 11/3/2015</text></g><g class="node" transform="translate(81.8528074577496,234.02642373434344)"><circle class="outline" cx="0" cy="0" r="25" fill="#4C8EDA" stroke="#2870c2" stroke-width="2px"/><text text-anchor="middle" pointer-events="none" font-family="sans-serif" dy="1.5625" font-size="25" fill="#FFFFFF"/><text text-anchor="middle" pointer-events="none" x="0" y="5" font-size="10px" fill="#FFFFFF" font-family="sans-serif"> 11/30/20…</text></g><g class="node" transform="translate(232.20064711892618,71.10655560944369)"><circle class="outline" cx="0" cy="0" r="25" fill="#4C8EDA" stroke="#2870c2" stroke-width="2px"/><text text-anchor="middle" pointer-events="none" font-family="sans-serif" dy="1.5625" font-size="25" fill="#FFFFFF"/><text text-anchor="middle" pointer-events="none" x="0" y="5" font-size="10px" fill="#FFFFFF" font-family="sans-serif"> 11/30/20…</text></g></g></svg>