<svg xmlns="http://www.w3.org/2000/svg" width="393.5487060546875" height="343.55078125" viewBox="-84.38020324707031 -78.33258819580078 393.5487060546875 343.55078125"><title>Neo4j Graph Visualization</title><desc>Created using Neo4j (http://www.neo4j.com/)</desc><g class="layer relationships"><g class="relationship" transform="translate(48.51578249073908 29.608220852395068) rotate(365.27778759691193)"><path class="outline" fill="#A5ABB6" stroke="none" d="M 24.018736134675446,-6.953439040707552 L 24.277555179777966,-5.987513214418485 A 107.49248111052377 107.49248111052377 0 0 1 39.474569332444226,-8.906360428650245 L 39.35712774924102,-9.899440221282603 A 108.49248111052377 108.49248111052377 0 0 0 24.018736134675446,-6.953439040707552 Z M 61.42974436478246,-10.248217505031093 L 61.34373759479466,-9.251922952443223 A 107.49248111052377 107.49248111052377 0 0 1 76.625385238534,-6.8146799385106975 L 75.94087051279766,-3.8938171224493017 L 83.55481759696664,-5.704289381136144 L 77.53807153951578,-10.709163693259224 L 76.85355681377945,-7.7883008771978295 A 108.49248111052377 108.49248111052377 0 0 0 61.42974436478246,-10.248217505031093"/><text text-anchor="middle" pointer-events="none" font-size="8px" fill="#000000" x="50.39244179752923" y="-7.136751276388409" font-family="sans-serif">road</text></g><g class="relationship" transform="translate(155.95369408644544 39.53292615287372) rotate(369.03622614759695)"><path class="outline" fill="#A5ABB6" stroke="none" d="M 21.40063509461097,-12.933012701892217 L 21.90063509461097,-12.06698729810778 A 78.80221698353297 78.80221698353297 0 0 1 49.64612485149913,-21.75772569556908 L 49.49821506950259,-22.74672655319749 A 79.80221698353297 79.80221698353297 0 0 0 21.40063509461097,-12.933012701892217 Z M 68.90106555648212,-23.26182833614206 L 68.80583860343052,-22.266372748276638 A 78.80221698353297 78.80221698353297 0 0 1 97.02641882063851,-14.061406889618489 L 95.6663806160639,-11.387403134554285 L 103.49243394988409,-11.333651704788428 L 98.83980309340465,-17.626745229704095 L 97.47976488883005,-14.95274147463989 A 79.80221698353297 79.80221698353297 0 0 0 68.90106555648212,-23.26182833614206"/><text text-anchor="middle" pointer-events="none" font-size="8px" fill="#000000" x="59.19719063602827" y="-20.096551860036627" font-family="sans-serif">trek</text></g><g class="relationship" transform="translate(280.1685187905424 59.28713661583229) rotate(216.94159526445344)"><path class="outline" fill="#A5ABB6" stroke="none" d="M 21.40063509461097,12.933012701892217 L 21.90063509461097,12.06698729810778 A 52.46042219258472 52.46042219258472 0 0 0 24.298013029240444,13.369198640284225 L 23.843711821480976,14.260046782578016 A 53.46042219258472 53.46042219258472 0 0 1 21.40063509461097,12.933012701892217 Z M 69.23272421128739,15.754451429009926 L 68.83800458216874,14.835649810384645 A 52.46042219258472 52.46042219258472 0 0 0 71.315846685869,13.693952017502655 L 69.98999000043179,11.002836254537142 L 77.81609291369473,11.048805711976751 L 73.08365559978529,17.282106368123337 L 71.75779891434807,14.590990605157826 A 53.46042219258472 53.46042219258472 0 0 1 69.23272421128739,15.754451429009926"/><text text-anchor="middle" pointer-events="none" font-size="8px" fill="#000000" x="46.38810196912701" y="22.56666957141772" transform="rotate(180 46.38810196912701 19.56666957141772)" font-family="sans-serif">twowheeler</text></g><g class="relationship" transform="translate(200.05019878575888 -0.9584019120129157) rotate(466.32331517510534)"><path class="outline" fill="#A5ABB6" stroke="none" d="M 25 0.5 L 63.96039468118316 0.5 L 63.96039468118316 -0.5 L 25 -0.5 Z M 83.29633218118316 0.5 L 122.25672686236632 0.5 L 122.25672686236632 3.5 L 129.25672686236632 0 L 122.25672686236632 -3.5 L 122.25672686236632 -0.5 L 83.29633218118316 -0.5 Z"/><text text-anchor="middle" pointer-events="none" font-size="8px" fill="#000000" x="73.62836343118316" y="3" transform="rotate(180 73.62836343118316 0)" font-family="sans-serif">trek</text></g><g class="relationship" transform="translate(48.51578249073908 29.608220852395068) rotate(365.27778759691193)"><path class="outline" fill="#A5ABB6" stroke="none" d="M 24.018736134675446,6.953439040707552 L 24.277555179777966,5.987513214418485 A 107.49248111052377 107.49248111052377 0 0 0 40.797984910290666,9.054561115902544 L 40.69285503079152,10.04901961601027 A 108.49248111052377 108.49248111052377 0 0 1 24.018736134675446,6.953439040707552 Z M 60.089957998471334,10.355520154822415 L 60.01630034569975,9.358236569181813 A 107.49248111052377 107.49248111052377 0 0 0 76.625385238534,6.8146799385106975 L 75.94087051279766,3.8938171224493017 L 83.55481759696664,5.704289381136144 L 77.53807153951578,10.709163693259224 L 76.85355681377945,7.7883008771978295 A 108.49248111052377 108.49248111052377 0 0 1 60.089957998471334,10.355520154822415"/><text text-anchor="middle" pointer-events="none" font-size="8px" fill="#000000" x="50.39244179752922" y="13.13675127638841" font-family="sans-serif">trek</text></g><g class="relationship" transform="translate(155.95369408644544 39.53292615287372) rotate(369.03622614759695)"><path class="outline" fill="#A5ABB6" stroke="none" d="M 25 0.5 L 48.38203991270956 0.5 L 48.38203991270956 -0.5 L 25 -0.5 Z M 70.39375866270956 0.5 L 93.77579857541912 0.5 L 93.77579857541912 3.5 L 100.77579857541912 0 L 93.77579857541912 -3.5 L 93.77579857541912 -0.5 L 70.39375866270956 -0.5 Z"/><text text-anchor="middle" pointer-events="none" font-size="8px" fill="#000000" x="59.38789928770956" y="3" font-family="sans-serif">road</text></g><g class="relationship" transform="translate(155.95369408644544 39.53292615287372) rotate(369.03622614759695)"><path class="outline" fill="#A5ABB6" stroke="none" d="M 21.40063509461097,12.933012701892217 L 21.90063509461097,12.06698729810778 A 78.80221698353297 78.80221698353297 0 0 0 36.550450893076736,18.636454755111828 L 36.23635703073688,19.585846689794465 A 79.80221698353297 79.80221698353297 0 0 1 21.40063509461097,12.933012701892217 Z M 82.31195353232968,20.809049534352354 L 82.04867500774574,19.84432966905834 A 78.80221698353297 78.80221698353297 0 0 0 97.02641882063851,14.061406889618489 L 95.6663806160639,11.387403134554285 L 103.49243394988409,11.333651704788428 L 98.83980309340465,17.626745229704095 L 97.47976488883005,14.95274147463989 A 79.80221698353297 79.80221698353297 0 0 1 82.31195353232968,20.809049534352354"/><text text-anchor="middle" pointer-events="none" font-size="8px" fill="#000000" x="59.197190636028274" y="26.096551860036627" font-family="sans-serif">twowheeler</text></g><g class="relationship" transform="translate(280.1685187905424 59.28713661583229) rotate(216.94159526445344)"><path class="outline" fill="#A5ABB6" stroke="none" d="M 25 0.5 L 35.615169427537005 0.5 L 35.615169427537005 -0.5 L 25 -0.5 Z M 57.626888177537005 0.5 L 68.24205760507401 0.5 L 68.24205760507401 3.5 L 75.24205760507401 0 L 68.24205760507401 -3.5 L 68.24205760507401 -0.5 L 57.626888177537005 -0.5 Z"/><text text-anchor="middle" pointer-events="none" font-size="8px" fill="#000000" x="46.621028802537005" y="3" transform="rotate(180 46.621028802537005 0)" font-family="sans-serif">road</text></g><g class="relationship" transform="translate(280.1685187905424 59.28713661583229) rotate(216.94159526445344)"><path class="outline" fill="#A5ABB6" stroke="none" d="M 21.40063509461097,-12.933012701892217 L 21.90063509461097,-12.06698729810778 A 52.46042219258472 52.46042219258472 0 0 1 36.91480560464959,-17.882332141664115 L 36.701005560397576,-18.859209585910747 A 53.46042219258472 53.46042219258472 0 0 0 21.40063509461097,-12.933012701892217 Z M 56.100754124774255,-19.497934089216443 L 55.95167359740468,-18.50910903069537 A 52.46042219258472 52.46042219258472 0 0 1 71.315846685869,-13.693952017502655 L 69.98999000043179,-11.002836254537142 L 77.81609291369473,-11.048805711976751 L 73.08365559978529,-17.282106368123337 L 71.75779891434807,-14.590990605157826 A 53.46042219258472 53.46042219258472 0 0 0 56.100754124774255,-19.497934089216443"/><text text-anchor="middle" pointer-events="none" font-size="8px" fill="#000000" x="46.388101969127014" y="-16.56666957141772" transform="rotate(180 46.388101969127014 -19.56666957141772)" font-family="sans-serif">trek</text></g><g class="relationship" transform="translate(48.51578249073908 29.608220852395068) rotate(293.39628668451905)"><path class="outline" fill="#A5ABB6" stroke="none" d="M 21.40063509461097,12.933012701892217 L 21.90063509461097,12.06698729810778 A 37.5726275655309 37.5726275655309 0 0 0 28.616014522108777,15.108959223819724 L 28.294745152959266,16.055947076142168 A 38.5726275655309 38.5726275655309 0 0 1 21.40063509461097,12.933012701892217 Z M 50.27037056825511,16.89129601216124 L 50.02191921049895,15.922651638394939 A 37.5726275655309 37.5726275655309 0 0 0 56.94885220125585,13.399258408308972 L 55.65041466487247,10.694806529626224 L 63.475646174246165,10.82031280319487 L 58.68010224976703,17.005194246552637 L 57.38166471338365,14.300742367869889 A 38.5726275655309 38.5726275655309 0 0 1 50.27037056825511,16.89129601216124"/><text text-anchor="middle" pointer-events="none" font-size="8px" fill="#000000" x="39.240756761032856" y="20.57328812249284" font-family="sans-serif">road</text></g><g class="relationship" transform="translate(82.67044675102737 -49.33258760424831) rotate(495.83013303022443)"><path class="outline" fill="#A5ABB6" stroke="none" d="M 24.018736134675446,-6.953439040707552 L 24.277555179777966,-5.987513214418485 A 182.9199418600798 182.9199418600798 0 0 1 59.81764628248776,-11.83915992208972 L 59.75312038411002,-12.837075954849269 A 183.9199418600798 183.9199418600798 0 0 0 24.018736134675446,-6.953439040707552 Z M 79.13142748159997,-13.066938349353592 L 79.0905906504036,-12.067772520665557 A 182.9199418600798 182.9199418600798 0 0 1 114.75948501991704,-7.060795464915871 L 114.05198263304165,-4.145415494386192 L 121.67995534896552,-5.895853223961577 L 115.70282153575089,-10.947968758955442 L 114.9953191488755,-8.032588788425764 A 183.9199418600798 183.9199418600798 0 0 0 79.13142748159997,-13.066938349353592"/><text text-anchor="middle" pointer-events="none" font-size="8px" fill="#000000" x="69.44517475308525" y="-9.707456557483056" transform="rotate(180 69.44517475308525 -12.707456557483056)" font-family="sans-serif">trek</text></g><g class="relationship" transform="translate(-22.033935218098815 52.38088866908728) rotate(417.4926934031751)"><path class="outline" fill="#A5ABB6" stroke="none" d="M 24.018736134675446,-6.953439040707552 L 24.277555179777966,-5.987513214418485 A 122.43452737146471 122.43452737146471 0 0 1 44.53815174377725,-9.624878472736711 L 44.44481376842664,-10.620512955043068 A 123.43452737146471 123.43452737146471 0 0 0 24.018736134675446,-6.953439040707552 Z M 63.83725536978513,-10.90813951016196 L 63.77348623730846,-9.910174832558994 A 122.43452737146471 122.43452737146471 0 0 1 84.1330449790953,-6.875283237906721 L 83.44286951285616,-3.955752826042239 L 91.06031185115228,-5.751462218659479 L 85.05327893408082,-10.767990453726028 L 84.36310346784168,-7.848460041861547 A 123.43452737146471 123.43452737146471 0 0 0 63.83725536978513,-10.90813951016196"/><text text-anchor="middle" pointer-events="none" font-size="8px" fill="#000000" x="54.14279181145467" y="-7.645848925755445" font-family="sans-serif">trek</text></g><g class="relationship" transform="translate(39.97733254998385 149.6916943860954) rotate(358.7183480375195)"><path class="outline" fill="#A5ABB6" stroke="none" d="M 24.018736134675446,6.953439040707552 L 24.277555179777966,5.987513214418485 A 125.13442963416219 125.13442963416219 0 0 0 31.85480484755918,7.767223907434527 L 31.65653867899059,8.747372123981975 A 126.13442963416219 126.13442963416219 0 0 1 24.018736134675446,6.953439040707552 Z M 78.03589755833121,9.42770565418732 L 77.86646587458574,8.442163719745565 A 125.13442963416219 125.13442963416219 0 0 0 85.49265687020284,6.885470565301074 L 84.80152985933918,3.96616526183337 L 92.41955708010475,5.759391757197156 L 86.41415955135437,10.777877636591347 L 85.72303254049072,7.858572333123642 A 126.13442963416219 126.13442963416219 0 0 1 78.03589755833121,9.42770565418732"/><text text-anchor="middle" pointer-events="none" font-size="8px" fill="#000000" x="54.822009879582026" y="13.73785091727018" font-family="sans-serif">twowheeler</text></g><g class="relationship" transform="translate(48.51578249073908 29.608220852395068) rotate(293.39628668451905)"><path class="outline" fill="#A5ABB6" stroke="none" d="M 25 0.5 L 25.38918508163455 0.5 L 25.38918508163455 -0.5 L 25 -0.5 Z M 53.62356008163455 0.5 L 54.0127451632691 0.5 L 54.0127451632691 3.5 L 61.0127451632691 0 L 54.0127451632691 -3.5 L 54.0127451632691 -0.5 L 53.62356008163455 -0.5 Z"/><text text-anchor="middle" pointer-events="none" font-size="8px" fill="#000000" x="39.50637258163455" y="3" font-family="sans-serif">Pub…</text></g><g class="relationship" transform="translate(48.51578249073908 29.608220852395068) rotate(293.39628668451905)"><path class="outline" fill="#A5ABB6" stroke="none" d="M 21.40063509461097,-12.933012701892217 L 21.90063509461097,-12.06698729810778 A 37.5726275655309 37.5726275655309 0 0 1 29.873536724777328,-15.511084130873677 L 29.58573646024328,-16.468774585944693 A 38.5726275655309 38.5726275655309 0 0 0 21.40063509461097,-12.933012701892217 Z M 48.95176477372249,-17.20492615573439 L 48.737498429478634,-16.228150882846926 A 37.5726275655309 37.5726275655309 0 0 1 56.94885220125585,-13.399258408308972 L 55.65041466487247,-10.694806529626224 L 63.475646174246165,-10.82031280319487 L 58.68010224976703,-17.005194246552637 L 57.38166471338365,-14.300742367869889 A 38.5726275655309 38.5726275655309 0 0 0 48.95176477372249,-17.20492615573439"/><text text-anchor="middle" pointer-events="none" font-size="8px" fill="#000000" x="39.24075676103284" y="-14.573288122492833" font-family="sans-serif">trek</text></g><g class="relationship" transform="translate(82.67044675102737 -49.33258760424831) rotate(495.83013303022443)"><path class="outline" fill="#A5ABB6" stroke="none" d="M 24.018736134675446,6.953439040707552 L 24.277555179777966,5.987513214418485 A 182.9199418600798 182.9199418600798 0 0 0 46.36292286752345,10.468153928664435 L 46.22484171170278,11.458574846460124 A 183.9199418600798 183.9199418600798 0 0 1 24.018736134675446,6.953439040707552 Z M 92.68859826423781,12.009720531431412 L 92.57404908491036,11.016302952809298 A 182.9199418600798 182.9199418600798 0 0 0 114.75948501991704,7.060795464915871 L 114.05198263304165,4.145415494386192 L 121.67995534896552,5.895853223961577 L 115.70282153575089,10.947968758955442 L 114.9953191488755,8.032588788425764 A 183.9199418600798 183.9199418600798 0 0 1 92.68859826423781,12.009720531431412"/><text text-anchor="middle" pointer-events="none" font-size="8px" fill="#000000" x="69.4451747530853" y="15.707456557483056" transform="rotate(180 69.4451747530853 12.707456557483056)" font-family="sans-serif">twowheeler</text></g><g class="relationship" transform="translate(-22.033935218098815 52.38088866908728) rotate(417.4926934031751)"><path class="outline" fill="#A5ABB6" stroke="none" d="M 24.018736134675446,6.953439040707552 L 24.277555179777966,5.987513214418485 A 122.43452737146471 122.43452737146471 0 0 0 31.184612785150353,7.62521310291136 L 30.98220803553832,8.604515057026887 A 123.43452737146471 123.43452737146471 0 0 1 24.018736134675446,6.953439040707552 Z M 77.35372822832576,9.29229233040249 L 77.1804559191742,8.307418375583254 A 122.43452737146471 122.43452737146471 0 0 0 84.1330449790953,6.875283237906721 L 83.44286951285616,3.955752826042239 L 91.06031185115228,5.751462218659479 L 85.05327893408082,10.767990453726028 L 84.36310346784168,7.848460041861547 A 123.43452737146471 123.43452737146471 0 0 1 77.35372822832576,9.29229233040249"/><text text-anchor="middle" pointer-events="none" font-size="8px" fill="#000000" x="54.14279181145466" y="13.645848925755445" font-family="sans-serif">twowheeler</text></g><g class="relationship" transform="translate(82.67044675102737 -49.33258760424831) rotate(382.3973893271875)"><path class="outline" fill="#A5ABB6" stroke="none" d="M 25 0.5 L 50.31050797463858 0.5 L 50.31050797463858 -0.5 L 25 -0.5 Z M 69.64644547463858 0.5 L 94.95695344927717 0.5 L 94.95695344927717 3.5 L 101.95695344927717 0 L 94.95695344927717 -3.5 L 94.95695344927717 -0.5 L 69.64644547463858 -0.5 Z"/><text text-anchor="middle" pointer-events="none" font-size="8px" fill="#000000" x="59.97847672463858" y="3" font-family="sans-serif">trek</text></g><g class="relationship" transform="translate(39.97733254998385 149.6916943860954) rotate(358.7183480375195)"><path class="outline" fill="#A5ABB6" stroke="none" d="M 24.018736134675446,-6.953439040707552 L 24.277555179777966,-5.987513214418485 A 125.13442963416219 125.13442963416219 0 0 1 45.21581906700625,-9.726517954406035 L 45.124326184243245,-10.722323684658534 A 126.13442963416219 126.13442963416219 0 0 0 24.018736134675446,-6.953439040707552 Z M 64.5159764873636,-11.0067775931645 L 64.45373140691258,-10.008716698248946 A 125.13442963416219 125.13442963416219 0 0 1 85.49265687020284,-6.885470565301074 L 84.80152985933918,-3.96616526183337 L 92.41955708010475,-5.759391757197156 L 86.41415955135437,-10.777877636591347 L 85.72303254049072,-7.858572333123642 A 126.13442963416219 126.13442963416219 0 0 0 64.5159764873636,-11.0067775931645"/><text text-anchor="middle" pointer-events="none" font-size="8px" fill="#000000" x="54.82200987958201" y="-7.73785091727018" font-family="sans-serif">trek</text></g><g class="relationship" transform="translate(82.67044675102737 -49.33258760424831) rotate(410.48918728755325)"><path class="outline" fill="#A5ABB6" stroke="none" d="M 25 0.5 L 44.42437856138614 0.5 L 44.42437856138614 -0.5 L 25 -0.5 Z M 63.76031606138614 0.5 L 83.18469462277228 0.5 L 83.18469462277228 3.5 L 90.18469462277228 0 L 83.18469462277228 -3.5 L 83.18469462277228 -0.5 L 63.76031606138614 -0.5 Z"/><text text-anchor="middle" pointer-events="none" font-size="8px" fill="#000000" x="54.09234731138614" y="3" font-family="sans-serif">trek</text></g><g class="relationship" transform="translate(-22.033935218098815 52.38088866908728) rotate(465.1027114356671)"><path class="outline" fill="#A5ABB6" stroke="none" d="M 24.018736134675446,-6.953439040707552 L 24.277555179777966,-5.987513214418485 A 147.42225482071112 147.42225482071112 0 0 1 50.827913222737166,-10.553299262023017 L 50.749191531831606,-11.550195894267802 A 148.42225482071112 148.42225482071112 0 0 0 24.018736134675446,-6.953439040707552 Z M 70.13492535470016,-11.810848524968748 L 70.08303500331944,-10.812195736741728 A 147.42225482071112 147.42225482071112 0 0 1 96.74655221007544,-6.961901643187848 L 96.0482863372775,-4.044295643247871 L 103.67067718873503,-5.818882273316025 L 97.677573373806,-10.852042976441151 L 96.97930750100807,-7.934436976501174 A 148.42225482071112 148.42225482071112 0 0 0 70.13492535470016,-11.810848524968748"/><text text-anchor="middle" pointer-events="none" font-size="8px" fill="#000000" x="60.44452015122595" y="-8.497435566159993" transform="rotate(180 60.44452015122595 -11.497435566159993)" font-family="sans-serif">trek</text></g><g class="relationship" transform="translate(-55.38020751190601 175.94441836816839) rotate(344.60732672797064)"><path class="outline" fill="#A5ABB6" stroke="none" d="M 21.40063509461097,12.933012701892217 L 21.90063509461097,12.06698729810778 A 51.069907801289226 51.069907801289226 0 0 0 23.679033091582916,13.04713064420865 L 23.213855907474645,13.932348237450618 A 52.069907801289226 52.069907801289226 0 0 1 21.40063509461097,12.933012701892217 Z M 68.5331053440115,15.443457376132955 L 68.12792858761568,14.529219006736575 A 51.069907801289226 51.069907801289226 0 0 0 69.96766705546302,13.669717532356115 L 68.64406501483205,10.977492126109917 L 76.47012667680931,11.030017005258191 L 71.73246977630433,17.259351407351044 L 70.40886773567335,14.567126001104848 A 52.069907801289226 52.069907801289226 0 0 1 68.5331053440115,15.443457376132955"/><text text-anchor="middle" pointer-events="none" font-size="8px" fill="#000000" x="45.71701518792721" y="22.380413773112245" font-family="sans-serif">twowheeler</text></g><g class="relationship" transform="translate(-22.033935218098815 52.38088866908728) rotate(465.1027114356671)"><path class="outline" fill="#A5ABB6" stroke="none" d="M 24.018736134675446,6.953439040707552 L 24.277555179777966,5.987513214418485 A 147.42225482071112 147.42225482071112 0 0 0 37.4189021837983,8.873112066377644 L 37.24922400158655,9.858611591735865 A 148.42225482071112 148.42225482071112 0 0 1 24.018736134675446,6.953439040707552 Z M 83.67549309000086,10.482840175605617 L 83.53237270204875,9.49313488889021 A 147.42225482071112 147.42225482071112 0 0 0 96.74655221007544,6.961901643187848 L 96.0482863372775,4.044295643247871 L 103.67067718873503,5.818882273316025 L 97.677573373806,10.852042976441151 L 96.97930750100807,7.934436976501174 A 148.42225482071112 148.42225482071112 0 0 1 83.67549309000086,10.482840175605617"/><text text-anchor="middle" pointer-events="none" font-size="8px" fill="#000000" x="60.44452015122597" y="14.497435566159993" transform="rotate(180 60.44452015122597 11.497435566159993)" font-family="sans-serif">twowheeler</text></g><g class="relationship" transform="translate(-55.38020751190601 175.94441836816839) rotate(344.60732672797064)"><path class="outline" fill="#A5ABB6" stroke="none" d="M 25 0.5 L 34.94680982276383 0.5 L 34.94680982276383 -0.5 L 25 -0.5 Z M 56.95852857276383 0.5 L 66.90533839552766 0.5 L 66.90533839552766 3.5 L 73.90533839552766 0 L 66.90533839552766 -3.5 L 66.90533839552766 -0.5 L 56.95852857276383 -0.5 Z"/><text text-anchor="middle" pointer-events="none" font-size="8px" fill="#000000" x="45.95266919776383" y="3" font-family="sans-serif">road</text></g><g class="relationship" transform="translate(-55.38020751190601 175.94441836816839) rotate(344.60732672797064)"><path class="outline" fill="#A5ABB6" stroke="none" d="M 21.40063509461097,-12.933012701892217 L 21.90063509461097,-12.06698729810778 A 51.069907801289226 51.069907801289226 0 0 1 36.25053706666978,-17.669161775940104 L 36.031522535214066,-18.644883373021585 A 52.069907801289226 52.069907801289226 0 0 0 21.40063509461097,-12.933012701892217 Z M 55.42999117893471,-19.29169909941657 L 55.276459081006145,-18.3035554383502 A 51.069907801289226 51.069907801289226 0 0 1 69.96766705546302,-13.669717532356115 L 68.64406501483205,-10.977492126109917 L 76.47012667680931,-11.030017005258191 L 71.73246977630433,-17.259351407351044 L 70.40886773567335,-14.567126001104848 A 52.069907801289226 52.069907801289226 0 0 0 55.42999117893471,-19.29169909941657"/><text text-anchor="middle" pointer-events="none" font-size="8px" fill="#000000" x="45.717015187927196" y="-16.380413773112245" font-family="sans-serif">trek</text></g><g class="relationship" transform="translate(-55.38020751190601 175.94441836816839) rotate(387.71072731262973)"><path class="outline" fill="#A5ABB6" stroke="none" d="M 25 0.5 L 51.64147527690844 0.5 L 51.64147527690844 -0.5 L 25 -0.5 Z M 70.97741277690844 0.5 L 97.61888805381687 0.5 L 97.61888805381687 3.5 L 104.61888805381687 0 L 97.61888805381687 -3.5 L 97.61888805381687 -0.5 L 70.97741277690844 -0.5 Z"/><text text-anchor="middle" pointer-events="none" font-size="8px" fill="#000000" x="61.30944402690844" y="3" font-family="sans-serif">trek</text></g><g class="relationship" transform="translate(59.372246882353586 236.21821326115057) rotate(317.5135259686125)"><path class="outline" fill="#A5ABB6" stroke="none" d="M 25 0.5 L 52.81936665612639 0.5 L 52.81936665612639 -0.5 L 25 -0.5 Z M 72.15530415612639 0.5 L 99.97467081225278 0.5 L 99.97467081225278 3.5 L 106.97467081225278 0 L 99.97467081225278 -3.5 L 99.97467081225278 -0.5 L 72.15530415612639 -0.5 Z"/><text text-anchor="middle" pointer-events="none" font-size="8px" fill="#000000" x="62.48733540612639" y="3" font-family="sans-serif">trek</text></g></g><g class="layer nodes"><g class="node" transform="translate(48.51578249073908,29.608220852395068)"><circle class="outline" cx="0" cy="0" r="25" fill="#F16667" stroke="#eb2728" stroke-width="2px"/><text text-anchor="middle" pointer-events="none" font-family="sans-serif" dy="1.5625" font-size="25" fill="#FFFFFF"/><text text-anchor="middle" pointer-events="none" x="0" y="5" font-size="10px" fill="#FFFFFF" font-family="sans-serif"> Darjeeling</text></g><g class="node" transform="translate(156.69522642216873,147.08039082030783)"><circle class="outline" cx="0" cy="0" r="25" fill="#D9C8AE" stroke="#c0a378" stroke-width="2px"/><text text-anchor="middle" pointer-events="none" font-family="sans-serif" dy="1.5625" font-size="25" fill="#2A2C34"/><text text-anchor="middle" pointer-events="none" x="0" y="5" font-size="10px" fill="#2A2C34" font-family="sans-serif"> Sandak…</text></g><g class="node" transform="translate(155.95369408644544,39.53292615287372)"><circle class="outline" cx="0" cy="0" r="25" fill="#8DCC93" stroke="#5db665" stroke-width="2px"/><text text-anchor="middle" pointer-events="none" font-family="sans-serif" dy="1.5625" font-size="25" fill="#2A2C34"/><text text-anchor="middle" pointer-events="none" x="0" y="5" font-size="10px" fill="#2A2C34" font-family="sans-serif"> Tumbling</text></g><g class="node" transform="translate(280.1685187905424,59.28713661583229)"><circle class="outline" cx="0" cy="0" r="25" fill="#8DCC93" stroke="#5db665" stroke-width="2px"/><text text-anchor="middle" pointer-events="none" font-family="sans-serif" dy="1.5625" font-size="25" fill="#2A2C34"/><text text-anchor="middle" pointer-events="none" x="0" y="5" font-size="10px" fill="#2A2C34" font-family="sans-serif"> Gairibus</text></g><g class="node" transform="translate(200.05019878575888,-0.9584019120129157)"><circle class="outline" cx="0" cy="0" r="25" fill="#8DCC93" stroke="#5db665" stroke-width="2px"/><text text-anchor="middle" pointer-events="none" font-family="sans-serif" dy="1.5625" font-size="25" fill="#2A2C34"/><text text-anchor="middle" pointer-events="none" x="0" y="5" font-size="10px" fill="#2A2C34" font-family="sans-serif"> BhikeBh…</text></g><g class="node" transform="translate(82.67044675102737,-49.33258760424831)"><circle class="outline" cx="0" cy="0" r="25" fill="#F16667" stroke="#eb2728" stroke-width="2px"/><text text-anchor="middle" pointer-events="none" font-family="sans-serif" dy="1.5625" font-size="25" fill="#FFFFFF"/><text text-anchor="middle" pointer-events="none" x="0" y="5" font-size="10px" fill="#FFFFFF" font-family="sans-serif"> Rimbik</text></g><g class="node" transform="translate(-22.033935218098815,52.38088866908728)"><circle class="outline" cx="0" cy="0" r="25" fill="#8DCC93" stroke="#5db665" stroke-width="2px"/><text text-anchor="middle" pointer-events="none" font-family="sans-serif" dy="1.5625" font-size="25" fill="#2A2C34"/><text text-anchor="middle" pointer-events="none" x="0" y="5" font-size="10px" fill="#2A2C34" font-family="sans-serif"> Sirikhola</text></g><g class="node" transform="translate(39.97733254998385,149.6916943860954)"><circle class="outline" cx="0" cy="0" r="25" fill="#8DCC93" stroke="#5db665" stroke-width="2px"/><text text-anchor="middle" pointer-events="none" font-family="sans-serif" dy="1.5625" font-size="25" fill="#2A2C34"/><text text-anchor="middle" pointer-events="none" x="0" y="5" font-size="10px" fill="#2A2C34" font-family="sans-serif"> Gurdum</text></g><g class="node" transform="translate(-55.38020751190601,175.94441836816839)"><circle class="outline" cx="0" cy="0" r="25" fill="#8DCC93" stroke="#5db665" stroke-width="2px"/><text text-anchor="middle" pointer-events="none" font-family="sans-serif" dy="1.5625" font-size="25" fill="#2A2C34"/><text text-anchor="middle" pointer-events="none" x="0" y="5" font-size="10px" fill="#2A2C34" font-family="sans-serif"> Rammam</text></g><g class="node" transform="translate(59.372246882353586,236.21821326115057)"><circle class="outline" cx="0" cy="0" r="25" fill="#D9C8AE" stroke="#c0a378" stroke-width="2px"/><text text-anchor="middle" pointer-events="none" font-family="sans-serif" dy="1.5625" font-size="25" fill="#2A2C34"/><text text-anchor="middle" pointer-events="none" x="0" y="5" font-size="10px" fill="#2A2C34" font-family="sans-serif"> Sabargr…</text></g></g></svg>