<svg xmlns="http://www.w3.org/2000/svg" width="379.6651306152344" height="371.08795166015625" viewBox="-92.29415893554688 -82.87725067138672 379.6651306152344 371.08795166015625"><title>Neo4j Graph Visualization</title><desc>Created using Neo4j (http://www.neo4j.com/)</desc><g class="layer relationships"><g class="relationship" transform="translate(152.34623037053979 259.2106847434269) rotate(305.822996363433)"><path class="outline" fill="#A5ABB6" stroke="none" d="M 24.018736134675446,6.953439040707552 L 24.277555179777966,5.987513214418485 A 100.14858797701145 100.14858797701145 0 0 0 25.49209926218629,6.304804527670115 L 25.24540763801842,7.273898559519154 A 101.14858797701145 101.14858797701145 0 0 1 24.018736134675446,6.953439040707552 Z M 71.93773824340686,8.036105984454494 L 71.7228086869014,7.059476430457494 A 100.14858797701145 100.14858797701145 0 0 0 72.94706184417956,6.7819961384142875 L 72.26560007176651,3.8604195344657133 L 79.87765088212839,5.678848103441966 L 73.85567754073027,10.677431610345721 L 73.17421576831723,7.755855006397146 A 101.14858797701145 101.14858797701145 0 0 1 71.93773824340686,8.036105984454494"/><text text-anchor="middle" pointer-events="none" font-size="8px" fill="#000000" x="48.55514447851208" y="12.886586149116852" font-family="sans-serif">DIRECTED</text></g><g class="relationship" transform="translate(152.34623037053979 259.2106847434269) rotate(305.822996363433)"><path class="outline" fill="#A5ABB6" stroke="none" d="M 24.018736134675446,-6.953439040707552 L 24.277555179777966,-5.987513214418485 A 100.14858797701145 100.14858797701145 0 0 1 30.887082560388755,-7.520583615072297 L 30.694260725173287,-8.501817399582464 A 101.14858797701145 101.14858797701145 0 0 0 24.018736134675446,-6.953439040707552 Z M 66.45170983056153,-9.085523392654679 L 66.29101759483893,-8.098518830670045 A 100.14858797701145 100.14858797701145 0 0 1 72.94706184417956,-6.7819961384142875 L 72.26560007176651,-3.8604195344657133 L 79.87765088212839,-5.678848103441966 L 73.85567754073027,-10.677431610345721 L 73.17421576831723,-7.755855006397146 A 101.14858797701145 101.14858797701145 0 0 0 66.45170983056153,-9.085523392654679"/><text text-anchor="middle" pointer-events="none" font-size="8px" fill="#000000" x="48.55514447851206" y="-6.886586149116852" font-family="sans-serif">WROTE</text></g><g class="relationship" transform="translate(258.37097498550344 80.63814451833866) rotate(475.5781567641821)"><path class="outline" fill="#A5ABB6" stroke="none" d="M 24.018736134675446,6.953439040707552 L 24.277555179777966,5.987513214418485 A 100.27012321596187 100.27012321596187 0 0 0 25.521740402785095,6.3123554524049155 L 25.275329692120614,7.281520949969604 A 101.27012321596187 101.27012321596187 0 0 1 24.018736134675446,6.953439040707552 Z M 71.96841038008438,8.043324088314549 L 71.75374649929813,7.066636104214297 A 100.27012321596187 100.27012321596187 0 0 0 73.00786639486238,6.782554009954311 L 72.3263525119197,3.860989561348669 L 79.93843575543265,5.679282357855665 L 73.91655157211927,10.677973274761834 L 73.2350376891766,7.756408826156192 A 101.27012321596187 101.27012321596187 0 0 1 71.96841038008438,8.043324088314549"/><text text-anchor="middle" pointer-events="none" font-size="8px" fill="#000000" x="48.58551500372195" y="12.890725836513838" transform="rotate(180 48.58551500372195 9.890725836513838)" font-family="sans-serif">DIRECTED</text></g><g class="relationship" transform="translate(258.37097498550344 80.63814451833866) rotate(475.5781567641821)"><path class="outline" fill="#A5ABB6" stroke="none" d="M 24.018736134675446,-6.953439040707552 L 24.277555179777966,-5.987513214418485 A 100.27012321596187 100.27012321596187 0 0 1 30.917069580794823,-7.526758060787287 L 30.72446681416158,-8.508034868974065 A 101.27012321596187 101.27012321596187 0 0 0 24.018736134675446,-6.953439040707552 Z M 66.48216263301425,-9.09142590879054 L 66.32167314811939,-8.104388358725615 A 100.27012321596187 100.27012321596187 0 0 1 73.00786639486238,-6.782554009954311 L 72.3263525119197,-3.860989561348669 L 79.93843575543265,-5.679282357855665 L 73.91655157211927,-10.677973274761834 L 73.2350376891766,-7.756408826156192 A 101.27012321596187 101.27012321596187 0 0 0 66.48216263301425,-9.09142590879054"/><text text-anchor="middle" pointer-events="none" font-size="8px" fill="#000000" x="48.58551500372192" y="-6.8907258365138375" transform="rotate(180 48.58551500372192 -9.890725836513838)" font-family="sans-serif">WROTE</text></g><g class="relationship" transform="translate(142.92950977992152 -53.877252222540854) rotate(534.6722563495316)"><path class="outline" fill="#A5ABB6" stroke="none" d="M 21.40063509461097,12.933012701892217 L 21.90063509461097,12.06698729810778 A 56.71160222311136 56.71160222311136 0 0 0 23.85545082588674,13.14487006578959 L 23.389920240515256,14.029901858486149 A 57.71160222311136 57.71160222311136 0 0 1 21.40063509461097,12.933012701892217 Z M 73.83367544991773,15.629126754353805 L 73.42513993304537,14.716384330964914 A 56.71160222311136 56.71160222311136 0 0 0 75.44430597489657,13.764489221436774 L 74.11188709861597,11.07661646809982 L 81.93807887872956,11.103490635671559 L 77.22086447660402,17.348319559219377 L 75.88844560032342,14.660446805882424 A 57.71160222311136 57.71160222311136 0 0 1 73.83367544991773,15.629126754353805"/><text text-anchor="middle" pointer-events="none" font-size="8px" fill="#000000" x="48.44356020258428" y="23.136171602636068" transform="rotate(180 48.44356020258428 20.136171602636068)" font-family="sans-serif">PRODUCED</text></g><g class="relationship" transform="translate(142.92950977992152 -53.877252222540854) rotate(534.6722563495316)"><path class="outline" fill="#A5ABB6" stroke="none" d="M 25 0.5 L 25.2231967449354 0.5 L 25.2231967449354 -0.5 L 25 -0.5 Z M 72.1138217449354 0.5 L 72.3370184898708 0.5 L 72.3370184898708 3.5 L 79.3370184898708 0 L 72.3370184898708 -3.5 L 72.3370184898708 -0.5 L 72.1138217449354 -0.5 Z"/><text text-anchor="middle" pointer-events="none" font-size="8px" fill="#000000" x="48.6685092449354" y="3" transform="rotate(180 48.6685092449354 0)" font-family="sans-serif">DIRECTED</text></g><g class="relationship" transform="translate(142.92950977992152 -53.877252222540854) rotate(534.6722563495316)"><path class="outline" fill="#A5ABB6" stroke="none" d="M 21.40063509461097,-12.933012701892217 L 21.90063509461097,-12.06698729810778 A 56.71160222311136 56.71160222311136 0 0 1 31.112310840650615,-16.33595816591977 L 30.77474102045403,-17.27725865805416 A 57.71160222311136 57.71160222311136 0 0 0 21.40063509461097,-12.933012701892217 Z M 66.25798855758009,-18.40218864417521 L 65.98072104576241,-17.441395884580082 A 56.71160222311136 56.71160222311136 0 0 1 75.44430597489657,-13.764489221436774 L 74.11188709861597,-11.07661646809982 L 81.93807887872956,-11.103490635671559 L 77.22086447660402,-17.348319559219377 L 75.88844560032342,-14.660446805882424 A 57.71160222311136 57.71160222311136 0 0 0 66.25798855758009,-18.40218864417521"/><text text-anchor="middle" pointer-events="none" font-size="8px" fill="#000000" x="48.44356020258427" y="-17.136171602636068" transform="rotate(180 48.44356020258427 -20.136171602636068)" font-family="sans-serif">WROTE</text></g><g class="relationship" transform="translate(-63.29416020907409 99.20511947709994) rotate(432.41438723653664)"><path class="outline" fill="#A5ABB6" stroke="none" d="M 21.40063509461097,12.933012701892217 L 21.90063509461097,12.06698729810778 A 57.60758739369127 57.60758739369127 0 0 0 31.532849485429495,16.501239920031942 L 31.200053404680475,17.444238736912475 A 58.60758739369127 58.60758739369127 0 0 1 21.40063509461097,12.933012701892217 Z M 66.69664218403585,18.560847299827266 L 66.42377284912956,17.598796196159796 A 57.60758739369127 57.60758739369127 0 0 0 76.31564224957998,13.778708481176672 L 74.98190056987227,11.09149186694356 L 82.80810462940852,11.114513997564211 L 78.09396448919026,17.36166396682082 L 76.76022280948254,14.674447352587709 A 58.60758739369127 58.60758739369127 0 0 1 66.69664218403585,18.560847299827266"/><text text-anchor="middle" pointer-events="none" font-size="8px" fill="#000000" x="48.87745460433557" y="23.256212296097708" font-family="sans-serif">WROTE</text></g><g class="relationship" transform="translate(-63.29416020907409 99.20511947709994) rotate(432.41438723653664)"><path class="outline" fill="#A5ABB6" stroke="none" d="M 25 0.5 L 25.655475707342227 0.5 L 25.655475707342227 -0.5 L 25 -0.5 Z M 72.54610070734222 0.5 L 73.20157641468445 0.5 L 73.20157641468445 3.5 L 80.20157641468445 0 L 73.20157641468445 -3.5 L 73.20157641468445 -0.5 L 72.54610070734222 -0.5 Z"/><text text-anchor="middle" pointer-events="none" font-size="8px" fill="#000000" x="49.10078820734223" y="3" font-family="sans-serif">DIRECTED</text></g><g class="relationship" transform="translate(-63.29416020907409 99.20511947709994) rotate(432.41438723653664)"><path class="outline" fill="#A5ABB6" stroke="none" d="M 21.40063509461097,-12.933012701892217 L 21.90063509461097,-12.06698729810778 A 57.60758739369127 57.60758739369127 0 0 1 24.255345140654917,-13.354302070706048 L 23.796220139115654,-14.242673745716893 A 58.60758739369127 58.60758739369127 0 0 0 21.40063509461097,-12.933012701892217 Z M 74.28706008181109,-15.830953244325045 L 73.88467820023081,-14.915481332480717 A 57.60758739369127 57.60758739369127 0 0 1 76.31564224957998,-13.778708481176672 L 74.98190056987227,-11.09149186694356 L 82.80810462940852,-11.114513997564211 L 78.09396448919026,-17.36166396682082 L 76.76022280948254,-14.674447352587709 A 58.60758739369127 58.60758739369127 0 0 0 74.28706008181109,-15.830953244325045"/><text text-anchor="middle" pointer-events="none" font-size="8px" fill="#000000" x="48.877454604335554" y="-17.256212296097708" font-family="sans-serif">PRODUCED</text></g></g><g class="layer nodes"><g class="node" transform="translate(152.34623037053979,259.2106847434269)"><circle class="outline" cx="0" cy="0" r="25" fill="#57C7E3" stroke="#23b3d7" stroke-width="2px"/><text text-anchor="middle" pointer-events="none" font-family="sans-serif" dy="1.5625" font-size="25" fill="#2A2C34"/><text text-anchor="middle" pointer-events="none" font-family="sans-serif" dy="1.5625" font-size="25" fill="#2A2C34"/><text text-anchor="middle" pointer-events="none" x="0" y="0" font-size="10px" fill="#2A2C34" font-family="sans-serif"> Lilly</text><text text-anchor="middle" pointer-events="none" x="0" y="10" font-size="10px" fill="#2A2C34" font-family="sans-serif"> Wacho…</text></g><g class="node" transform="translate(213.34685400289504,174.70274639211613)"><circle class="outline" cx="0" cy="0" r="25" fill="#F79767" stroke="#f36924" stroke-width="2px"/><text text-anchor="middle" pointer-events="none" font-family="sans-serif" dy="1.5625" font-size="25" fill="#FFFFFF"/><text text-anchor="middle" pointer-events="none" font-family="sans-serif" dy="1.5625" font-size="25" fill="#FFFFFF"/><text text-anchor="middle" pointer-events="none" x="0" y="0" font-size="10px" fill="#FFFFFF" font-family="sans-serif"> Speed</text><text text-anchor="middle" pointer-events="none" x="0" y="10" font-size="10px" fill="#FFFFFF" font-family="sans-serif"> Racer</text></g><g class="node" transform="translate(258.37097498550344,80.63814451833866)"><circle class="outline" cx="0" cy="0" r="25" fill="#57C7E3" stroke="#23b3d7" stroke-width="2px"/><text text-anchor="middle" pointer-events="none" font-family="sans-serif" dy="1.5625" font-size="25" fill="#2A2C34"/><text text-anchor="middle" pointer-events="none" font-family="sans-serif" dy="1.5625" font-size="25" fill="#2A2C34"/><text text-anchor="middle" pointer-events="none" x="0" y="0" font-size="10px" fill="#2A2C34" font-family="sans-serif"> Lana</text><text text-anchor="middle" pointer-events="none" x="0" y="10" font-size="10px" fill="#2A2C34" font-family="sans-serif"> Wacho…</text></g><g class="node" transform="translate(142.92950977992152,-53.877252222540854)"><circle class="outline" cx="0" cy="0" r="25" fill="#57C7E3" stroke="#23b3d7" stroke-width="2px"/><text text-anchor="middle" pointer-events="none" font-family="sans-serif" dy="1.5625" font-size="25" fill="#2A2C34"/><text text-anchor="middle" pointer-events="none" font-family="sans-serif" dy="1.5625" font-size="25" fill="#2A2C34"/><text text-anchor="middle" pointer-events="none" x="0" y="0" font-size="10px" fill="#2A2C34" font-family="sans-serif"> Cameron</text><text text-anchor="middle" pointer-events="none" x="0" y="10" font-size="10px" fill="#2A2C34" font-family="sans-serif"> Crowe</text></g><g class="node" transform="translate(39.04324244850388,-44.189275792920796)"><circle class="outline" cx="0" cy="0" r="25" fill="#F79767" stroke="#f36924" stroke-width="2px"/><text text-anchor="middle" pointer-events="none" font-family="sans-serif" dy="1.5625" font-size="25" fill="#FFFFFF"/><text text-anchor="middle" pointer-events="none" font-family="sans-serif" dy="1.5625" font-size="25" fill="#FFFFFF"/><text text-anchor="middle" pointer-events="none" x="0" y="0" font-size="10px" fill="#FFFFFF" font-family="sans-serif"> Jerry</text><text text-anchor="middle" pointer-events="none" x="0" y="10" font-size="10px" fill="#FFFFFF" font-family="sans-serif"> Maguire</text></g><g class="node" transform="translate(-63.29416020907409,99.20511947709994)"><circle class="outline" cx="0" cy="0" r="25" fill="#57C7E3" stroke="#23b3d7" stroke-width="2px"/><text text-anchor="middle" pointer-events="none" font-family="sans-serif" dy="1.5625" font-size="25" fill="#2A2C34"/><text text-anchor="middle" pointer-events="none" font-family="sans-serif" dy="1.5625" font-size="25" fill="#2A2C34"/><text text-anchor="middle" pointer-events="none" x="0" y="0" font-size="10px" fill="#2A2C34" font-family="sans-serif"> Nancy</text><text text-anchor="middle" pointer-events="none" x="0" y="10" font-size="10px" fill="#2A2C34" font-family="sans-serif"> Meyers</text></g><g class="node" transform="translate(-31.50955210555364,199.49026477709097)"><circle class="outline" cx="0" cy="0" r="25" fill="#F79767" stroke="#f36924" stroke-width="2px"/><text text-anchor="middle" pointer-events="none" font-family="sans-serif" dy="1.5625" font-size="25" fill="#FFFFFF"/><text text-anchor="middle" pointer-events="none" x="0" y="5" font-size="10px" fill="#FFFFFF" font-family="sans-serif"> Somethi…</text></g></g></svg>