<svg xmlns="http://www.w3.org/2000/svg" width="237.76353454589844" height="246.5177459716797" viewBox="-9.689464569091797 -11.239086151123047 237.76353454589844 246.5177459716797"><title>Neo4j Graph Visualization</title><desc>Created using Neo4j (http://www.neo4j.com/)</desc><g class="layer relationships"><g class="relationship" transform="translate(125.29794778770776 126.66152222652896) rotate(407.59032287227086)"><path class="outline" fill="#A5ABB6" stroke="none" d="M 25 0.5 L 27.63494363309416 0.5 L 27.63494363309416 -0.5 L 25 -0.5 Z M 73.19744363309417 0.5 L 75.83238726618832 0.5 L 75.83238726618832 3.5 L 82.83238726618832 0 L 75.83238726618832 -3.5 L 75.83238726618832 -0.5 L 73.19744363309417 -0.5 Z"/><text text-anchor="middle" pointer-events="none" font-size="8px" fill="#000000" x="50.41619363309416" y="3" font-family="sans-serif">ACTED_IN</text></g><g class="relationship" transform="translate(125.29794778770776 126.66152222652896) rotate(310.7819875158255)"><path class="outline" fill="#A5ABB6" stroke="none" d="M 25 0.5 L 30.19309563561748 0.5 L 30.19309563561748 -0.5 L 25 -0.5 Z M 75.75559563561748 0.5 L 80.94869127123496 0.5 L 80.94869127123496 3.5 L 87.94869127123496 0 L 80.94869127123496 -3.5 L 80.94869127123496 -0.5 L 75.75559563561748 -0.5 Z"/><text text-anchor="middle" pointer-events="none" font-size="8px" fill="#000000" x="52.97434563561748" y="3" font-family="sans-serif">ACTED_IN</text></g><g class="relationship" transform="translate(125.29794778770776 126.66152222652896) rotate(254.05072502205894)"><path class="outline" fill="#A5ABB6" stroke="none" d="M 25 0.5 L 30.34901707428562 0.5 L 30.34901707428562 -0.5 L 25 -0.5 Z M 75.91151707428563 0.5 L 81.26053414857124 0.5 L 81.26053414857124 3.5 L 88.26053414857124 0 L 81.26053414857124 -3.5 L 81.26053414857124 -0.5 L 75.91151707428563 -0.5 Z"/><text text-anchor="middle" pointer-events="none" font-size="8px" fill="#000000" x="53.13026707428562" y="3" transform="rotate(180 53.13026707428562 0)" font-family="sans-serif">ACTED_IN</text></g><g class="relationship" transform="translate(125.29794778770776 126.66152222652896) rotate(200.65180932935107)"><path class="outline" fill="#A5ABB6" stroke="none" d="M 25 0.5 L 30.35162777513753 0.5 L 30.35162777513753 -0.5 L 25 -0.5 Z M 75.91412777513753 0.5 L 81.26575555027506 0.5 L 81.26575555027506 3.5 L 88.26575555027506 0 L 81.26575555027506 -3.5 L 81.26575555027506 -0.5 L 75.91412777513753 -0.5 Z"/><text text-anchor="middle" pointer-events="none" font-size="8px" fill="#000000" x="53.13287777513753" y="3" transform="rotate(180 53.13287777513753 0)" font-family="sans-serif">ACTED_IN</text></g><g class="relationship" transform="translate(125.29794778770776 126.66152222652896) rotate(503.99346616302216)"><path class="outline" fill="#A5ABB6" stroke="none" d="M 25 0.5 L 30.20714611484683 0.5 L 30.20714611484683 -0.5 L 25 -0.5 Z M 75.76964611484684 0.5 L 80.97679222969366 0.5 L 80.97679222969366 3.5 L 87.97679222969366 0 L 80.97679222969366 -3.5 L 80.97679222969366 -0.5 L 75.76964611484684 -0.5 Z"/><text text-anchor="middle" pointer-events="none" font-size="8px" fill="#000000" x="52.98839611484683" y="3" transform="rotate(180 52.98839611484683 0)" font-family="sans-serif">ACTED_IN</text></g></g><g class="layer nodes"><g class="node" transform="translate(125.29794778770776,126.66152222652896)"><circle class="outline" cx="0" cy="0" r="25" fill="#57C7E3" stroke="#23b3d7" stroke-width="2px"/><text text-anchor="middle" pointer-events="none" font-family="sans-serif" dy="1.5625" font-size="25" fill="#2A2C34"/><text text-anchor="middle" pointer-events="none" font-family="sans-serif" dy="1.5625" font-size="25" fill="#2A2C34"/><text text-anchor="middle" pointer-events="none" x="0" y="0" font-size="10px" fill="#2A2C34" font-family="sans-serif"> Hugo</text><text text-anchor="middle" pointer-events="none" x="0" y="10" font-size="10px" fill="#2A2C34" font-family="sans-serif"> Weaving</text></g><g class="node" transform="translate(198.0230321691462,206.27864252887267)"><circle class="outline" cx="0" cy="0" r="25" fill="#F79767" stroke="#f36924" stroke-width="2px"/><text text-anchor="middle" pointer-events="none" font-family="sans-serif" dy="1.5625" font-size="25" fill="#FFFFFF"/><text text-anchor="middle" pointer-events="none" font-family="sans-serif" dy="1.5625" font-size="25" fill="#FFFFFF"/><text text-anchor="middle" pointer-events="none" x="0" y="0" font-size="10px" fill="#FFFFFF" font-family="sans-serif"> Cloud</text><text text-anchor="middle" pointer-events="none" x="0" y="10" font-size="10px" fill="#FFFFFF" font-family="sans-serif"> Atlas</text></g><g class="node" transform="translate(199.07406646136224,41.136723639595125)"><circle class="outline" cx="0" cy="0" r="25" fill="#F79767" stroke="#f36924" stroke-width="2px"/><text text-anchor="middle" pointer-events="none" font-family="sans-serif" dy="1.5625" font-size="25" fill="#FFFFFF"/><text text-anchor="middle" pointer-events="none" font-family="sans-serif" dy="1.5625" font-size="25" fill="#FFFFFF"/><text text-anchor="middle" pointer-events="none" x="0" y="0" font-size="10px" fill="#FFFFFF" font-family="sans-serif"> V for</text><text text-anchor="middle" pointer-events="none" x="0" y="10" font-size="10px" fill="#FFFFFF" font-family="sans-serif"> Vendetta</text></g><g class="node" transform="translate(94.17551316727736,17.760913142296985)"><circle class="outline" cx="0" cy="0" r="25" fill="#F79767" stroke="#f36924" stroke-width="2px"/><text text-anchor="middle" pointer-events="none" font-family="sans-serif" dy="1.5625" font-size="25" fill="#FFFFFF"/><text text-anchor="middle" pointer-events="none" font-family="sans-serif" dy="1.5625" font-size="25" fill="#FFFFFF"/><text text-anchor="middle" pointer-events="none" font-family="sans-serif" dy="1.5625" font-size="25" fill="#FFFFFF"/><text text-anchor="middle" pointer-events="none" x="0" y="-5" font-size="10px" fill="#FFFFFF" font-family="sans-serif"> The</text><text text-anchor="middle" pointer-events="none" x="0" y="5" font-size="10px" fill="#FFFFFF" font-family="sans-serif"> Matrix</text><text text-anchor="middle" pointer-events="none" x="0" y="15" font-size="10px" fill="#FFFFFF" font-family="sans-serif"> Revol…</text></g><g class="node" transform="translate(19.31053612732493,86.71405735193134)"><circle class="outline" cx="0" cy="0" r="25" fill="#F79767" stroke="#f36924" stroke-width="2px"/><text text-anchor="middle" pointer-events="none" font-family="sans-serif" dy="1.5625" font-size="25" fill="#FFFFFF"/><text text-anchor="middle" pointer-events="none" font-family="sans-serif" dy="1.5625" font-size="25" fill="#FFFFFF"/><text text-anchor="middle" pointer-events="none" font-family="sans-serif" dy="1.5625" font-size="25" fill="#FFFFFF"/><text text-anchor="middle" pointer-events="none" x="0" y="-5" font-size="10px" fill="#FFFFFF" font-family="sans-serif"> The</text><text text-anchor="middle" pointer-events="none" x="0" y="5" font-size="10px" fill="#FFFFFF" font-family="sans-serif"> Matrix</text><text text-anchor="middle" pointer-events="none" x="0" y="15" font-size="10px" fill="#FFFFFF" font-family="sans-serif"> Reloa…</text></g><g class="node" transform="translate(33.905376247633875,193.07803711404657)"><circle class="outline" cx="0" cy="0" r="25" fill="#F79767" stroke="#f36924" stroke-width="2px"/><text text-anchor="middle" pointer-events="none" font-family="sans-serif" dy="1.5625" font-size="25" fill="#FFFFFF"/><text text-anchor="middle" pointer-events="none" font-family="sans-serif" dy="1.5625" font-size="25" fill="#FFFFFF"/><text text-anchor="middle" pointer-events="none" x="0" y="0" font-size="10px" fill="#FFFFFF" font-family="sans-serif"> The</text><text text-anchor="middle" pointer-events="none" x="0" y="10" font-size="10px" fill="#FFFFFF" font-family="sans-serif"> Matrix</text></g></g></svg>